<svg xmlns="http://www.w3.org/2000/svg" xmlns:xlink="http://www.w3.org/1999/xlink" width="24" height="24" viewBox="0 0 24 24"><defs><path id="a" d="M0 0h24v24H0z"/></defs><clipPath id="b"><use xlink:href="#a" overflow="visible"/></clipPath><path d="M21,10 C19.895,10 19,10.895 19,12 L19,15 L5,15 L5,12 C5,10.895 4.105,10 3,10 C1.895,10 1,10.895 1,12 L1,17 C1,18.1 1.9,19 3,19 L21,19 C22.1,19 23,18.1 23,17 L23,12 C23,10.895 22.105,10 21,10 Z M18,5 L6,5 C4.9,5 4,5.9 4,7 L4,9.155 C5.16,9.57 6,10.67 6,11.97 L6,14 L18,14 L18,11.97 C18,10.67 18.84,9.57 20,9.155 L20,7 C20,5.9 19.1,5 18,5 Z" clip-path="url(#b)"/></svg>